<?xml version="1.0" encoding="UTF-8" standalone="no"?>
<svg
   xmlns:dc="http://purl.org/dc/elements/1.1/"
   xmlns:cc="http://creativecommons.org/ns#"
   xmlns:rdf="http://www.w3.org/1999/02/22-rdf-syntax-ns#"
   xmlns:svg="http://www.w3.org/2000/svg"
   xmlns="http://www.w3.org/2000/svg"
   xmlns:sodipodi="http://sodipodi.sourceforge.net/DTD/sodipodi-0.dtd"
   xmlns:inkscape="http://www.inkscape.org/namespaces/inkscape"
   inkscape:version="1.0 (4035a4fb49, 2020-05-01)"
   sodipodi:docname="logo2.svg"
   id="svg4"
   version="1.1"
   height="70"
   width="200">
  <metadata
     id="metadata10">
    <rdf:RDF>
      <cc:Work
         rdf:about="">
        <dc:format>image/svg+xml</dc:format>
        <dc:type
           rdf:resource="http://purl.org/dc/dcmitype/StillImage" />
        <dc:title></dc:title>
      </cc:Work>
    </rdf:RDF>
  </metadata>
  <defs
     id="defs8" />
  <sodipodi:namedview
     inkscape:current-layer="svg4"
     inkscape:window-maximized="1"
     inkscape:window-y="-12"
     inkscape:window-x="-12"
     inkscape:cy="35"
     inkscape:cx="100"
     inkscape:zoom="15.563191"
     showgrid="false"
     id="namedview6"
     inkscape:window-height="2036"
     inkscape:window-width="3840"
     inkscape:pageshadow="2"
     inkscape:pageopacity="0"
     guidetolerance="10"
     gridtolerance="10"
     objecttolerance="10"
     borderopacity="1"
     bordercolor="#666666"
     pagecolor="#ffffff" />
  <path
     id="path2"
     fill="#f44d27"
     d="M4.798 42.732L3.638 9.935H13.69L12.53 42.41l-7.732.322zM3.251 54.201c0-3.673 2.642-5.799 5.541-5.799 3.544 0 5.412 2.126 5.412 5.799 0 3.737-2.706 5.863-5.606 5.863-3.544 0-5.348-2.126-5.348-5.863zM24.483 19.6v-5.477l19.137-.322V19.6l-4.704 1.933 5.541 23.196 9.021-30.413 8.699-.515 8.634 30.864 6.186-23.132-4.833-1.933v-5.477l18.364-.322V19.6l-4.639 1.933L74.87 59.227h-9.15L57.28 28.621l-1.546 6.121-7.41 24.485h-8.892L28.993 21.469l-4.51-1.869zm85.15 32.217V21.533h-6.121l-1.611 6.121h-5.928V13.801h37.372v13.853h-5.992l-1.611-6.121h-6.121v30.284l6.121 1.933v5.477h-22.23V53.75l6.121-1.933zm31.734 7.41V53.75l4.833-1.933V21.533l-4.833-1.933v-5.477l14.82-.322h18.041v12.242h-5.992l-1.611-4.51h-10.438v11.276h13.338v7.088h-13.338v11.92l5.928 1.933v5.477h-20.748zm45.974-16.495l-1.16-32.797h10.052l-1.16 32.475-7.732.322zm-1.546 11.469c0-3.673 2.642-5.799 5.541-5.799 3.544 0 5.412 2.126 5.412 5.799 0 3.737-2.706 5.863-5.606 5.863-3.544 0-5.348-2.126-5.348-5.863z"
     stroke="null" />
</svg>
